HIERARCHY
ROOT hip
{
	OFFSET 0.000000 0.000000 0.000000 
	CHANNELS 6 Xposition Yposition Zposition Xrotation Zrotation Yrotation
	JOINT abdomen
	{
		OFFSET 0.000000 3.402643 0.000000 
		CHANNELS 3 Xrotation Zrotation Yrotation
		JOINT chest
		{
			OFFSET 0.000000 8.438565 -0.680529 
			CHANNELS 3 Xrotation Zrotation Yrotation
			JOINT neck
			{
				OFFSET 0.000000 9.885400 -0.272212 
				CHANNELS 3 Xrotation Zrotation Yrotation
				JOINT head
				{
					OFFSET 0.000000 3.130431 0.000000 
					CHANNELS 3 Xrotation Zrotation Yrotation
					End Site
					{
						OFFSET 0.000000 3.039250 0.000000 
					}
				}
			}
			JOINT lCollar
			{
				OFFSET 3.238290 6.669187 -0.816635 
				CHANNELS 3 Yrotation Zrotation Xrotation
				JOINT lShldr
				{
					OFFSET 2.515050 0.000000 0.000000 
					CHANNELS 3 Zrotation Yrotation Xrotation
					JOINT lForeArm
					{
						OFFSET 11.517700 0.000000 0.000000 
						CHANNELS 3 Yrotation Zrotation Xrotation
						JOINT lHand
						{
							OFFSET 9.026700 0.000000 0.000000 
							CHANNELS 3 Zrotation Yrotation Xrotation
							End Site
							{
								OFFSET 4.028470 0.000000 0.000000 
							}
						}
					}
				}
			}
			JOINT rCollar
			{
				OFFSET -3.238290 6.669187 -0.816635 
				CHANNELS 3 Yrotation Zrotation Xrotation
				JOINT rShldr
				{
					OFFSET -2.515050 0.000000 0.000000 
					CHANNELS 3 Zrotation Yrotation Xrotation
					JOINT rForeArm
					{
						OFFSET -11.517700 0.000000 0.000000 
						CHANNELS 3 Yrotation Zrotation Xrotation
						JOINT rHand
						{
							OFFSET -9.026700 0.000000 0.000000 
							CHANNELS 3 Zrotation Yrotation Xrotation
							End Site
							{
								OFFSET -4.028470 0.000000 0.000000 
							}
						}
					}
				}
			}
		}
	}
	JOINT lThigh
	{
		OFFSET 4.983750 -1.633274 1.361059 
		CHANNELS 3 Xrotation Zrotation Yrotation
		JOINT lShin
		{
			OFFSET -2.041588 -20.007561 0.000000 
			CHANNELS 3 Xrotation Zrotation Yrotation
			JOINT lFoot
			{
				OFFSET 0.000000 -19.190928 -1.224953 
				CHANNELS 3 Xrotation Yrotation Zrotation
				End Site
				{
					OFFSET 0.000000 -2.449906 4.627600 
				}
			}
		}
	}
	JOINT rThigh
	{
		OFFSET -4.983750 -1.633274 1.361059 
		CHANNELS 3 Xrotation Zrotation Yrotation
		JOINT rShin
		{
			OFFSET 2.041588 -20.007561 0.000000 
			CHANNELS 3 Xrotation Zrotation Yrotation
			JOINT rFoot
			{
				OFFSET 0.000000 -19.190928 -1.224953 
				CHANNELS 3 Xrotation Yrotation Zrotation
				End Site
				{
					OFFSET 0.000000 -2.449906 4.627600 
				}
			}
		}
	}
}
MOTION
Frames: 14
Frame Time: 0.066426
-83.862801 45.743584 96.666298 9.714200 -10.784400 33.125801 -4.622661 1.932497 -5.511730 -1.981140 0.828213 -2.362170 22.305700 12.000600 -9.543800 17.082399 6.510300 -3.927840 2.000000 -2.000000 0.000000 -72.803101 -15.974100 -153.481003 64.512199 -0.273681 0.123463 -179.910004 -179.878006 -1.081820 -2.000000 2.000000 0.000000 84.570099 -7.803390 -171.522003 -67.363800 0.267469 0.126191 -0.084582 0.088086 -166.139999 -36.197693 5.560468 -10.948473 61.199306 0.921999 4.058773 -40.867096 6.889021 2.313648 -40.861866 6.853077 3.938894 55.119244 -0.906187 -4.011089 -21.220692 15.522036 5.140329 
-88.403069 42.899544 100.740814 11.743400 -12.418800 32.009602 -4.260760 2.719513 -4.145225 -1.826040 1.165506 -1.776525 19.405300 13.041200 -11.059200 16.275600 6.847590 -4.547680 2.000000 -2.000000 0.000000 -69.282204 -18.245701 -156.220001 68.897003 -0.264074 0.127598 -179.910004 -179.878006 -1.345490 -2.000000 2.000000 0.000000 82.566498 -3.920790 -169.764999 -68.311096 0.265375 0.127043 -0.082869 0.075174 -164.860992 -45.394154 6.815612 -10.640731 72.582626 -0.054207 4.505083 -43.596600 3.539217 -0.786916 -50.559612 5.982369 1.219260 65.920746 -0.086402 -4.490898 -22.592569 20.051394 7.433689 
-92.617195 39.651905 104.633186 13.818000 -14.023100 29.733700 -4.081210 3.352413 -2.848132 -1.749090 1.436749 -1.220628 16.104900 14.121200 -12.363200 15.402600 7.311770 -4.973670 2.000000 -2.000000 0.000000 -65.155899 -19.143700 -160.447006 73.496597 -0.253687 0.131134 -179.908005 -179.876007 -2.185330 -2.000000 2.000000 0.000000 79.597000 2.511780 -168.490005 -67.393097 0.267404 0.126218 -0.081250 0.072040 -163.600998 -54.986927 8.422540 -9.481472 84.580772 -1.222528 4.788377 -47.236267 2.064139 -2.750234 -59.852020 4.988847 0.442606 75.686203 0.800493 -4.849222 -23.114809 25.610046 9.664845 
-96.469467 36.263535 108.502319 14.786200 -15.340400 26.520800 -3.599960 4.436131 -1.673321 -1.542840 1.901199 -0.717137 13.432200 14.933800 -13.253500 14.863900 7.777370 -5.151810 2.000000 -2.000000 0.000000 -61.048401 -19.359699 -165.227997 77.061096 -0.245462 0.133294 -179.906998 -179.875000 -2.800560 -2.000000 2.000000 0.000000 76.512901 10.235400 -168.042007 -65.205597 0.272183 0.124119 -0.081250 0.072040 -163.600998 -63.298210 10.762774 -8.742687 96.564644 -2.583963 4.947433 -50.348854 1.386930 -4.298484 -68.452034 4.851132 0.923260 85.292114 1.709647 -5.052797 -20.201248 29.459972 9.104713 
-100.160118 33.038174 112.673447 14.704900 -14.909300 22.445200 -3.689910 5.009354 0.110746 -1.581390 2.146866 0.047462 11.083600 16.514000 -14.739900 14.593200 8.313200 -5.520980 2.000000 -2.000000 0.000000 -57.574001 -19.699499 -168.567001 78.838402 -0.241315 0.134179 -179.906998 -179.876007 -2.449000 -2.000000 2.000000 0.000000 74.338501 15.929400 -168.339005 -63.867699 0.275066 0.122747 -0.081017 0.071575 -163.416000 -67.736855 14.704429 -6.672601 106.778229 -3.833936 4.944831 -53.593658 0.559785 -6.438597 -74.720306 5.581348 2.420307 93.964951 2.625191 -5.152014 -18.417648 31.144304 8.123554 
-103.916000 30.340101 117.229248 13.809900 -13.890300 20.048599 -4.349884 5.263076 0.457401 -1.864236 2.255604 0.196029 8.679530 17.807301 -15.512000 14.206200 8.920560 -5.510790 2.000000 -2.000000 0.000000 124.641998 -160.927002 7.740010 79.414597 -0.239965 0.134438 -179.908997 -179.876999 -1.706820 -2.000000 2.000000 0.000000 73.510902 19.823200 -167.147995 -64.287598 0.274164 0.123185 -0.081844 0.073210 -164.070007 -68.785439 20.323515 -4.376770 114.347168 -4.875808 4.825843 -56.686310 -1.008679 -9.675961 -78.359261 5.780198 2.478925 101.600235 3.501446 -5.158422 -20.739155 32.245796 9.248595 
-107.823441 28.410337 121.964874 12.152800 -11.291000 19.547501 -4.386025 4.706205 0.528849 -1.879725 2.016945 0.226649 6.747550 18.431601 -16.298800 13.790400 9.240860 -5.619750 2.000000 -2.000000 0.000000 126.737999 -158.070999 5.933640 77.383301 -0.244712 0.133464 -179.910004 -179.889008 -0.857231 -2.000000 2.000000 0.000000 72.702003 22.193899 -166.136002 -65.361900 0.271845 0.124275 -0.083867 0.086794 -165.613007 -66.543427 26.191305 -1.631205 119.368484 -5.545408 4.737362 -57.085793 -4.152864 -13.536463 -79.908134 5.267770 2.438773 108.703430 4.444689 -5.131493 -23.988243 30.510773 10.406870 
-111.662079 27.241402 126.694885 11.835300 -9.236540 19.626200 -4.688088 3.973809 0.387746 -2.009181 1.703061 0.166177 5.293840 18.241400 -16.759501 13.397600 9.348600 -5.717230 2.000000 -2.000000 0.000000 129.380997 -155.335007 5.520130 78.447800 -0.242229 0.133995 -179.912994 -179.891006 0.217003 -2.000000 2.000000 0.000000 71.580200 23.618700 -165.742004 -65.313004 0.271951 0.124227 -0.082997 0.075416 -164.959000 -64.648247 30.559324 1.798191 122.062584 -5.959050 4.694308 -58.055317 -6.720783 -16.847481 -80.228477 3.325272 2.654848 112.028160 4.905521 -5.094539 -24.799091 33.705906 11.645250 
-115.371277 26.815084 131.365738 12.041600 -8.598590 18.650400 -4.955111 4.660257 0.632442 -2.123619 1.997253 0.271046 5.110270 17.279699 -16.385500 13.314900 9.225560 -5.593890 2.000000 -2.000000 0.000000 131.733002 -153.953995 3.540900 81.231003 -0.235692 0.135166 -179.916000 -179.895004 2.179890 -2.000000 2.000000 0.000000 70.500397 27.406300 -165.093994 -60.811100 0.281525 0.119361 -0.084743 0.088372 -166.257996 -63.697334 32.786404 5.046058 123.237038 -6.239098 4.703712 -59.731861 -6.609732 -17.997307 -80.736710 3.323398 3.855843 112.232346 4.882116 -5.068155 -21.734755 36.524071 10.390590 
-118.933037 27.465225 136.122559 13.183400 -9.017880 17.340599 -5.019847 4.903492 1.266934 -2.151363 2.101497 0.542972 6.206190 17.221600 -16.185600 13.777700 9.144910 -5.570840 2.000000 -2.000000 0.000000 133.889008 -152.865005 1.531660 82.246597 -0.233294 0.135514 -179.917999 -179.897003 2.912310 -2.000000 2.000000 0.000000 70.810402 32.657398 -163.880005 -52.754398 0.297595 0.108837 -0.081919 0.073356 -164.128998 -65.080063 28.799210 3.021326 121.440269 -5.985878 4.737051 -59.226543 -4.461750 -15.224445 -81.356834 5.037646 4.835315 109.873787 4.552688 -5.079640 -19.883692 35.300114 9.140862 
-122.530540 29.308094 141.147446 15.532000 -9.943550 17.407801 -5.246451 4.326385 0.986581 -2.248479 1.854165 0.422820 7.433670 17.249500 -15.875800 14.190500 9.055720 -5.508000 2.000000 -2.000000 0.000000 135.169006 -152.942001 0.994378 82.100098 -0.233640 0.135466 -179.917999 -179.897003 3.185740 -2.000000 2.000000 0.000000 73.243599 34.410999 -162.016006 -50.391102 0.302012 0.105332 -0.080617 0.070767 -163.093994 -67.139450 20.313124 -2.832217 116.186478 -5.161132 4.827772 -55.724117 -2.177341 -10.349384 -81.358612 6.406824 4.642104 105.519524 4.023253 -5.153348 -19.850977 31.482132 8.645808 
-126.151505 32.152367 146.389008 18.146400 -10.983200 18.818001 -5.476268 3.052588 0.125810 -2.346972 1.308252 0.053919 9.148790 16.805500 -15.450400 14.626000 8.744580 -5.514950 2.000000 -2.000000 0.000000 133.695007 -153.785004 2.369410 81.309097 -0.235508 0.135194 -179.919006 -179.897995 3.771680 -2.000000 2.000000 0.000000 75.826797 33.408100 -159.005997 -52.031700 0.298961 0.107785 -0.080871 0.071282 -163.298996 -66.933784 12.576832 -7.202822 107.593819 -3.949692 4.937107 -52.292515 -0.723919 -7.032665 -79.284164 6.814215 4.453121 98.003922 3.120997 -5.183769 -18.384890 28.462934 7.600007 
-129.850632 35.767296 151.770203 18.817200 -11.470500 20.781200 -5.513032 2.402564 -0.691967 -2.362728 1.029670 -0.296557 11.299000 16.225000 -14.817700 15.229000 8.438220 -5.459740 2.000000 -2.000000 0.000000 129.654007 -154.542999 4.994620 78.750504 -0.241520 0.134138 -179.921005 -179.901001 4.992370 -2.000000 2.000000 0.000000 77.626801 31.740200 -155.479996 -52.373501 0.298316 0.108285 -0.081348 0.072235 -163.679993 -62.787735 7.927710 -9.367586 96.467484 -2.596267 4.956853 -49.158581 1.174268 -3.890962 -73.675537 6.919809 4.413573 87.733620 2.011812 -5.109129 -15.819671 25.580210 6.138058 
-133.470490 39.680489 157.170364 17.479099 -10.827000 23.323500 -5.667018 2.057176 -1.207267 -2.428722 0.881647 -0.517400 13.929200 15.784300 -14.196200 15.980000 8.146570 -5.444670 2.000000 -2.000000 0.000000 -55.763599 -24.412500 -171.082001 74.775902 -0.250751 0.131968 -179.923004 -179.904007 6.164260 -2.000000 2.000000 0.000000 79.056702 29.548401 -153.492004 -50.215302 0.302335 0.105065 -0.080689 0.070914 -163.151993 -55.617149 5.005323 -9.017654 83.475143 -1.210658 4.809004 -46.426929 3.832561 -0.653552 -64.516953 5.882854 5.176522 74.782700 0.714851 -4.812815 -13.610852 22.676096 4.716332 
